<?xml version="1.0" encoding="UTF-8" standalone="no"?>
<svg
   xmlns:dc="http://purl.org/dc/elements/1.1/"
   xmlns:cc="http://creativecommons.org/ns#"
   xmlns:rdf="http://www.w3.org/1999/02/22-rdf-syntax-ns#"
   xmlns:svg="http://www.w3.org/2000/svg"
   xmlns="http://www.w3.org/2000/svg"
   version="1.1"
   id="svg3814"
   height="24"
   width="24">
  <defs
     id="defs3816" />
  <metadata
     id="metadata3819">
    <rdf:RDF>
      <cc:Work
         rdf:about="">
        <dc:format>image/svg+xml</dc:format>
        <dc:type
           rdf:resource="http://purl.org/dc/dcmitype/StillImage" />
        <dc:title></dc:title>
      </cc:Work>
    </rdf:RDF>
  </metadata>
  <g
     style="display:inline"
     id="layer3" />
  <g
     style="display:inline"
     transform="translate(0,8)"
     id="layer1">
    <g
       id="layer2"
       style="display:inline;fill:#3c3c3c;fill-opacity:1;stroke:#dfdbd2;stroke-width:2;stroke-linecap:round;stroke-linejoin:miter;stroke-miterlimit:4;stroke-dasharray:none;stroke-dashoffset:0;stroke-opacity:1;paint-order:normal"
       transform="matrix(0.92330867,0,0,0.92304601,0.92136156,0.31710509)">
      <path
         style="opacity:1;fill:#3c3c3c;fill-opacity:1;stroke:#dfdbd2;stroke-width:2;stroke-linecap:round;stroke-linejoin:miter;stroke-miterlimit:4;stroke-dasharray:none;stroke-dashoffset:0;stroke-opacity:1;paint-order:normal"
         id="path819"
         d="M 23.996419,3.9984412 A 11.997753,11.997196 0 0 1 12.031071,15.995594 11.997753,11.997196 0 0 1 0.00108771,4.0632474 11.997753,11.997196 0 0 1 11.901453,-7.9983611 11.997753,11.997196 0 0 1 23.995719,3.8688307" />
    </g>
    <g
       id="layer1-2"
       transform="matrix(0.75830252,0,0,0.75830252,3.0211401,-11.976403)">
      <g
         id="g2988"
         style="opacity:0.4"
         transform="translate(1.0023544,-1)">
        <path
           id="path2396-0"
           transform="translate(0,10)"
           d="M 7,7 C 6.6947765,7 6.4334727,7.127959 6.25,7.34375 L 4,10 H 2 c -0.552,0 -1,0.448 -1,1 -0.00627,0.996071 0.00222,2.014549 0,3 0,0.552 0.4480001,1 1,1 h 2 l 2.15625,2.46875 C 6.3276084,17.773669 6.6255544,18 7,18 7.552,18 8.0000004,17.552 8,17 V 8 C 8,7.448 7.5519997,7 7,7 Z M 16.6875,9 14.5,11.25 12.25,9.03125 11,10.3125 13.25,12.5 11.03125,14.75 12.3125,16 14.5,13.75 16.75,15.96875 18,14.6875 15.75,12.5 17.96875,10.25 Z"
           style="display:inline;overflow:visible;visibility:visible;opacity:0.3;fill:#000000;fill-opacity:1;fill-rule:nonzero;stroke:none;stroke-width:1;marker:none;enable-background:accumulate" />
        <path
           id="rect3180-6"
           transform="translate(0,10)"
           d="M 7,6 C 6.6947765,6 6.4334727,6.127959 6.25,6.34375 L 4,9 H 2 c -0.552,0 -1,0.448 -1,1 -0.00627,0.996071 0.00222,2.014549 0,3 0,0.552 0.4480001,1 1,1 h 2 l 2.15625,2.46875 C 6.3276084,16.773669 6.6255544,17 7,17 7.552,17 8.0000004,16.552 8,16 V 7 C 8,6.448 7.5519997,6 7,6 Z M 16.6875,8 14.5,10.25 12.25,8.03125 11,9.3125 13.25,11.5 11.03125,13.75 12.3125,15 14.5,12.75 16.75,14.96875 18,13.6875 15.75,11.5 17.96875,9.25 Z"
           style="display:inline;overflow:visible;visibility:visible;fill:#dfdbd2;fill-opacity:1;fill-rule:evenodd;stroke:none;stroke-width:1.69999993;marker:none;enable-background:accumulate" />
      </g>
    </g>
  </g>
</svg>
