<?xml version="1.0" encoding="UTF-8" standalone="no"?>
<svg
   xmlns:dc="http://purl.org/dc/elements/1.1/"
   xmlns:cc="http://creativecommons.org/ns#"
   xmlns:rdf="http://www.w3.org/1999/02/22-rdf-syntax-ns#"
   xmlns:svg="http://www.w3.org/2000/svg"
   xmlns="http://www.w3.org/2000/svg"
   xmlns:sodipodi="http://sodipodi.sourceforge.net/DTD/sodipodi-0.dtd"
   xmlns:inkscape="http://www.inkscape.org/namespaces/inkscape"
   version="1.1"
   id="svg3814"
   height="24"
   width="24"
   sodipodi:docname="disconnected.svg"
   inkscape:version="0.92.5 (2060ec1f9f, 2020-04-08)"
   style="enable-background:new">
  <sodipodi:namedview
     pagecolor="#ffffff"
     bordercolor="#666666"
     borderopacity="1"
     objecttolerance="10"
     gridtolerance="10"
     guidetolerance="10"
     inkscape:pageopacity="0"
     inkscape:pageshadow="2"
     inkscape:window-width="1920"
     inkscape:window-height="993"
     id="namedview20"
     showgrid="false"
     inkscape:zoom="16"
     inkscape:cx="-7.9263553"
     inkscape:cy="8.9521939"
     inkscape:window-x="0"
     inkscape:window-y="29"
     inkscape:window-maximized="1"
     inkscape:current-layer="g1008"
     fit-margin-top="0"
     fit-margin-left="0"
     fit-margin-right="0"
     fit-margin-bottom="0"
     showguides="false">
    <inkscape:grid
       type="xygrid"
       id="grid1010" />
  </sodipodi:namedview>
  <defs
     id="defs3816">
    <filter
       id="filter5640"
       style="color-interpolation-filters:sRGB">
      <feFlood
         id="feFlood5630"
         result="flood"
         flood-color="rgb(0,0,0)"
         flood-opacity="0.494118" />
      <feComposite
         id="feComposite5632"
         result="composite1"
         operator="in"
         in2="SourceGraphic"
         in="flood" />
      <feGaussianBlur
         id="feGaussianBlur5634"
         result="blur"
         stdDeviation="1.1"
         in="composite1" />
      <feOffset
         id="feOffset5636"
         result="offset"
         dy="-2.498e-16"
         dx="4.57967e-15" />
      <feComposite
         id="feComposite5638"
         result="composite2"
         operator="over"
         in2="offset"
         in="SourceGraphic" />
    </filter>
    <filter
       style="color-interpolation-filters:sRGB"
       id="filter856">
      <feFlood
         flood-opacity="1"
         flood-color="rgb(0,0,0)"
         result="flood"
         id="feFlood846" />
      <feComposite
         in="flood"
         in2="SourceGraphic"
         operator="in"
         result="composite1"
         id="feComposite848" />
      <feGaussianBlur
         in="composite1"
         stdDeviation="0.69999999999999996"
         result="blur"
         id="feGaussianBlur850" />
      <feOffset
         dx="4.57967e-15"
         dy="-2.498e-16"
         result="offset"
         id="feOffset852" />
      <feComposite
         in="SourceGraphic"
         in2="offset"
         operator="over"
         result="composite2"
         id="feComposite854" />
    </filter>
    <filter
       style="color-interpolation-filters:sRGB"
       inkscape:label="Drop Shadow"
       id="filter900"
       x="-0.29999999999999999"
       y="-0.29999999999999999"
       width="1.6000000000000001"
       height="1.6000000000000001">
      <feFlood
         flood-opacity="1"
         flood-color="rgb(0,0,0)"
         result="flood"
         id="feFlood890" />
      <feComposite
         in="flood"
         in2="SourceGraphic"
         operator="in"
         result="composite1"
         id="feComposite892" />
      <feGaussianBlur
         in="composite1"
         stdDeviation="0.60999999999999999"
         result="blur"
         id="feGaussianBlur894" />
      <feOffset
         dx="4.57967e-15"
         dy="-2.498e-16"
         result="offset"
         id="feOffset896" />
      <feComposite
         in="SourceGraphic"
         in2="offset"
         operator="over"
         result="composite2"
         id="feComposite898" />
    </filter>
  </defs>
  <metadata
     id="metadata3819">
    <rdf:RDF>
      <cc:Work
         rdf:about="">
        <dc:format>image/svg+xml</dc:format>
        <dc:type
           rdf:resource="http://purl.org/dc/dcmitype/StillImage" />
        <dc:title />
      </cc:Work>
    </rdf:RDF>
  </metadata>
  <g
     transform="translate(-2.2594791,-16.575282)"
     style="display:inline"
     id="layer3" />
  <g
     style="display:inline"
     transform="translate(-2.2594791,-8.5752822)"
     id="layer1">
    <g
       id="layer2"
       style="display:inline;fill:#3c3c3c;fill-opacity:0.971875;stroke:#dfdbd2;stroke-width:2;stroke-linecap:round;stroke-linejoin:miter;stroke-miterlimit:4;stroke-dasharray:none;stroke-dashoffset:0;stroke-opacity:1;paint-order:normal;filter:url(#filter856)"
       transform="matrix(0.83348498,0,0,0.83352603,4.2587079,17.242506)">
      <path
         style="opacity:1;fill:#3c3c3c;fill-opacity:0.971875;stroke:#dfdbd2;stroke-width:2;stroke-linecap:round;stroke-linejoin:miter;stroke-miterlimit:4;stroke-dasharray:none;stroke-dashoffset:0;stroke-opacity:1;paint-order:normal"
         id="path819"
         d="M 23.996419,3.9984412 A 11.997753,11.997196 0 0 1 12.031071,15.995594 11.997753,11.997196 0 0 1 0.00108771,4.0632474 11.997753,11.997196 0 0 1 11.901453,-7.9983611 11.997753,11.997196 0 0 1 23.995719,3.8688307"
         inkscape:connector-curvature="0" />
    </g>
    <g
       id="g1008"
       style="opacity:0.6;filter:url(#filter900)">
      <path
         sodipodi:nodetypes="ccccc"
         inkscape:connector-curvature="0"
         id="path970"
         d="m 10.259479,18.575282 v 4 c 0,3 -0.9999999,-1 -2.9999999,-1 -1,0 -1,-1.995283 0,-2 2,0 2.9999999,-4 2.9999999,-1 z"
         style="display:none;fill:#dfdbd2;fill-opacity:1;fill-rule:evenodd;stroke:#dfdbd2;stroke-width:0.70045465px;stroke-linecap:butt;stroke-linejoin:miter;stroke-opacity:1" />
      <path
         style="display:none;fill:none;fill-rule:evenodd;stroke:#dfdbd2;stroke-width:1.24210227;stroke-linecap:round;stroke-linejoin:miter;stroke-miterlimit:4;stroke-dasharray:none;stroke-opacity:1;paint-order:normal;enable-background:new"
         d="m 12.259479,17.575282 c 0,0 3,3 0,6"
         id="path972"
         inkscape:connector-curvature="0"
         sodipodi:nodetypes="cc" />
      <path
         style="display:none;opacity:1;fill:none;fill-rule:evenodd;stroke:#dfdbd2;stroke-width:1.3406347;stroke-linecap:round;stroke-linejoin:miter;stroke-miterlimit:4;stroke-dasharray:none;stroke-opacity:1;paint-order:normal;enable-background:new"
         d="m 14.509479,15.575282 c 0,0 5,5 0,10"
         id="path972-6"
         inkscape:connector-curvature="0"
         sodipodi:nodetypes="cc" />
      <path
         style="display:none;opacity:1;fill:none;fill-rule:evenodd;stroke:#dfdbd2;stroke-width:1.48099995;stroke-linecap:round;stroke-linejoin:miter;stroke-miterlimit:4;stroke-dasharray:none;stroke-opacity:1;paint-order:normal;enable-background:new"
         d="m 17.259479,13.575282 c 0,0 6,7 0,14"
         id="path972-6-2"
         inkscape:connector-curvature="0"
         sodipodi:nodetypes="cc" />
      <rect
         style="display:none;opacity:1;fill:#dfdbd2;fill-opacity:1;stroke:none;stroke-width:3.46320677;stroke-linecap:round;stroke-linejoin:miter;stroke-miterlimit:4;stroke-dasharray:none;stroke-dashoffset:0;stroke-opacity:1;paint-order:normal"
         id="rect845"
         width="5.7010484"
         height="1.9887378"
         x="11.408955"
         y="19.580914" />
      <g
         aria-label="x"
         style="font-style:normal;font-variant:normal;font-weight:normal;font-stretch:normal;font-size:17.43105507px;line-height:125%;font-family:BloomingGroveBold;-inkscape-font-specification:BloomingGroveBold;letter-spacing:0px;word-spacing:0px;display:inline;fill:#dfdbd2;fill-opacity:1;stroke:none;stroke-width:0.6972422px;stroke-linecap:butt;stroke-linejoin:miter;stroke-opacity:1"
         id="text911"
         transform="matrix(0.99141301,0,0,0.97850386,-0.87342091,-0.07050747)">
        <path
           d="m 11.856199,17.691572 c -0.15688,0.15688 -0.226604,0.348622 -0.226604,0.557794 0,0.191742 0.06972,0.383483 0.209173,0.522932 l 2.196313,2.196313 c 0.06972,0.06972 0.05229,0.209172 -0.01743,0.278897 l -2.16145,2.178882 c -0.15688,0.156879 -0.226604,0.348621 -0.226604,0.540362 0,0.191742 0.06972,0.383483 0.209173,0.540363 0.156879,0.156879 0.366052,0.226604 0.557793,0.226604 0.209173,0 0.400915,-0.06973 0.540363,-0.209173 l 2.196313,-2.196313 c 0.05229,-0.06972 0.191742,-0.06972 0.261466,0 l 2.178882,2.196313 c 0.156879,0.139448 0.348621,0.209173 0.540362,0.209173 0.209173,0 0.400915,-0.06973 0.557794,-0.226604 0.15688,-0.15688 0.226604,-0.348621 0.226604,-0.540363 0,-0.191741 -0.06972,-0.383483 -0.226604,-0.540362 l -2.178882,-2.178882 c -0.05229,-0.06972 -0.06972,-0.209173 -0.01743,-0.278897 l 2.196313,-2.196313 c 0.15688,-0.139449 0.226604,-0.33119 0.226604,-0.522932 0,-0.209172 -0.06972,-0.400914 -0.226604,-0.557794 -0.156879,-0.156879 -0.348621,-0.226603 -0.540363,-0.226603 -0.191741,0 -0.400914,0.06972 -0.540362,0.226603 l -2.178882,2.178882 c -0.06972,0.06973 -0.226604,0.06973 -0.296328,0 l -2.178882,-2.178882 c -0.156879,-0.156879 -0.348621,-0.226603 -0.540363,-0.226603 -0.191741,0 -0.400914,0.06972 -0.540362,0.226603 z"
           style="stroke-width:0.6972422px"
           id="path913"
           inkscape:connector-curvature="0" />
      </g>
    </g>
  </g>
</svg>
